<?xml version="1.0" standalone="no"?>
<!DOCTYPE svg PUBLIC "-//W3C//DTD SVG 20010904//EN"
 "http://www.w3.org/TR/2001/REC-SVG-20010904/DTD/svg10.dtd">
<svg version="1.0" xmlns="http://www.w3.org/2000/svg"
 width="1133.000000pt" height="2048.000000pt" viewBox="0 0 1133.000000 2048.000000"
 preserveAspectRatio="xMidYMid meet">
<metadata>
Created by potrace 1.16, written by Peter Selinger 2001-2019
</metadata>
<g transform="translate(0.000000,2048.000000) scale(0.100000,-0.100000)"
fill="#000000" stroke="none">
<path d="M4480 20464 c-19 -2 -98 -9 -175 -15 -277 -21 -586 -68 -913 -140
-432 -95 -775 -213 -1139 -393 -717 -355 -1185 -757 -1578 -1356 -356 -542
-536 -1048 -624 -1750 -47 -376 -46 -212 -46 -5385 l0 -4880 2228 -3 2227 -2
-3 3317 c-3 3103 -4 3325 -20 3433 -79 515 -239 833 -603 1195 -179 180 -383
335 -619 471 -269 155 -760 389 -1170 557 -599 246 -1028 485 -1201 668 -171
181 -244 382 -244 674 0 193 44 402 115 551 83 172 288 286 580 323 451 57
834 -27 1250 -273 100 -60 609 -406 1110 -755 415 -289 510 -352 720 -479 467
-282 1081 -576 1454 -696 331 -107 701 -180 1106 -218 220 -21 872 -17 1055 5
393 49 701 129 986 255 479 212 963 643 1264 1124 194 310 383 780 487 1208
147 610 192 1491 115 2260 l-17 165 -236 3 -236 2 -6 -167 c-12 -350 -89 -662
-218 -886 -116 -199 -327 -328 -629 -382 -124 -22 -443 -32 -536 -16 -179 30
-371 94 -543 180 -162 82 -588 323 -991 561 -457 270 -851 461 -1274 619 -258
97 -565 171 -856 207 -127 15 -724 29 -820 18z"/>
<path d="M6873 10623 c3 -3103 4 -3325 20 -3433 79 -515 239 -833 603 -1195
179 -180 383 -335 619 -471 269 -155 760 -389 1170 -557 599 -246 1028 -485
1201 -668 171 -181 244 -382 244 -674 0 -193 -44 -402 -115 -551 -83 -172
-288 -286 -580 -323 -451 -57 -834 27 -1250 273 -100 60 -609 406 -1110 755
-415 289 -510 352 -720 479 -467 282 -1081 576 -1454 696 -331 107 -701 180
-1106 218 -220 21 -872 17 -1055 -5 -393 -49 -701 -129 -986 -255 -479 -212
-963 -643 -1264 -1124 -194 -310 -383 -780 -487 -1208 -147 -610 -192 -1491
-115 -2260 l17 -165 236 -3 236 -2 6 167 c12 350 89 662 218 886 116 199 327
328 629 382 124 22 443 32 536 16 179 -30 371 -94 543 -180 162 -82 588 -323
991 -561 457 -270 851 -461 1274 -619 261 -98 566 -171 866 -208 182 -22 769
-25 985 -5 806 76 1476 251 2052 536 717 355 1185 757 1578 1356 356 542 536
1048 624 1750 47 376 46 212 46 5385 l0 4880 -2228 3 -2227 2 3 -3317z"/>
</g>
</svg>
